<svg viewBox="0 0 94.2 88.6" xmlns="http://www.w3.org/2000/svg"><g fill="#826550"><path d="m87.2 22.4-1.7 5.2a43 43 0 0 1 -13 54.2 12.8 12.8 0 0 1 3.1 2.7 47.1 47.1 0 0 0 11.6-62.1zm-77.7 47.9h1.3a43.1 43.1 0 0 1 55.2-61.9 22.3 22.3 0 0 1 2.4-3.3 47.1 47.1 0 0 0 -62.2 65.4h3.3z"/><path d="m53.5 82c.4-6.1-.9-14 .7-19.1 4.5-.1 9.6.4 13.2-.7 8.2-14.8 12-34 18.4-50.6v-2.6c-.8-3-3.9-3.7-6.7-4.6h-.7c-10.6 3.5-11.9 16.1-14.4 27.7-15.8-4.2-32.3-.1-32.9 15.1-4.5.1-8 1.2-9.9 3.9-.6 6.7 1.6 10.7 6.6 11.8q-1.9 8-7.2 12.5c-6.4.6-15.6-1.6-19.1 2v2.6c3.2 3.9 12.9 1.2 19.1 2 6.6-3.9 8.5-12.6 11.8-19.7 4.7.4 10.9-.8 14.5.7v19.7c-7.8.5-15.4 1.2-19.1 5.9h44.7c-3.2-5.3-12.4-4.6-19-6.6zm-15.8-34.8c.7-11.7 15.3-11.7 25.6-8.6.1 4.7-.5 10.2 1.3 13.2-7-.9-17-4.4-26.9-4.6z"/></g></svg>