<svg viewBox="0 0 94.2 92" xmlns="http://www.w3.org/2000/svg"><g fill="#826550"><circle cx="47.1" cy="17.3" r="9.1"/><path d="m67.5 26.4h-40.8a2.8 2.8 0 0 0 -2.8 2.8v4.5a2.8 2.8 0 0 0 2.8 2.8h.8v45.4h-.8a2.8 2.8 0 0 0 -2.8 2.8v4.5a2.8 2.8 0 0 0 2.8 2.8h40.8a2.8 2.8 0 0 0 2.8-2.8v-4.5a2.8 2.8 0 0 0 -2.8-2.8h-.9v-45.4h.8a2.8 2.8 0 0 0 2.8-2.8v-4.5a2.8 2.8 0 0 0 -2.7-2.8zm-33.8 10.1h13.2l-13.2 13.2zm26.8 45.4h-13.5l13.5-13.5zm0-28.7-26.8 26.8v-15.1l26.8-26.8z"/><path d="m47.1 0a47.1 47.1 0 0 0 -28.2 84.8 7.8 7.8 0 0 1 1.2-4.1 43.1 43.1 0 1 1 54 0 7.8 7.8 0 0 1 1.2 4.1 47.1 47.1 0 0 0 -28.2-84.8z"/></g></svg>