<svg viewBox="0 0 22.1 21.2" xmlns="http://www.w3.org/2000/svg"><path d="m21.8 0h-.1c-1 3.3-1.3 7.3-4 8.8-.5-1.4-1.8-2.1-3.2-2.7a9.5 9.5 0 0 0 -2.8-1.1.9.9 0 0 0 -.6.1.9.9 0 0 0 -.7-.1 9.5 9.5 0 0 0 -2.8 1.1c-1.4.6-2.7 1.3-3.2 2.7-2.8-1.5-3.1-5.5-4-8.8h-.1a6.3 6.3 0 0 0 -.3 1 110.5 110.5 0 0 0 .8 12.2c.5 2.7 2.6 4.6 4.6 5.9s3.6 2.1 5.6 2.1 4.2-1.2 5.6-2.1 4.1-3.2 4.6-5.9a110.3 110.3 0 0 0 .9-12.2 6.1 6.1 0 0 0 -.3-1zm-6 12a1.8 1.8 0 0 1 -1.4 1.5c-1.3.1-1.9-1.9-3.4-1.9s-2.1 1.9-3.4 1.9a1.8 1.8 0 0 1 -1.4-1.5 3.2 3.2 0 0 1 .7-2.4 3.5 3.5 0 0 1 2-.5 3.7 3.7 0 0 0 2.1-.8 3.7 3.7 0 0 0 2.1.8 3.5 3.5 0 0 1 2 .5 3.2 3.2 0 0 1 .7 2.4z" fill="#826550"/></svg>