<svg viewBox="0 0 141.7 139.5" xmlns="http://www.w3.org/2000/svg"><path d="m71.8 21.5v-20.5a1 1 0 0 0 -2 0v20.5zm-26 6.9 1.7-1-10.2-17.7a1 1 0 0 0 -1.7 1zm-35.3 6.3a1 1 0 0 0 .4 1.4l17.7 10.3 1-1.7-17.7-10.3a1 1 0 0 0 -1.4.3zm95.9-26.2a1 1 0 0 0 -1.4.4l-10.8 18.6 1.7 1 10.8-18.6a1 1 0 0 0 -.3-1.4zm25.4 27.2a1 1 0 1 0 -1-1.7l-18.6 10.8 1 1.7zm-109.3 34.1v-1h-21.5a1 1 0 1 0 0 2h21.5zm118.2-1h-21.6v2h21.5a1.001 1.001 0 1 0 .1-2zm-9.9 34.6-17.7-10.3-1 1.7 17.7 10.3h.5a1 1 0 0 0 .5-1.7zm-120.9.5a1 1 0 0 0 .5 1.9h.5l18.6-10.8-1-1.7zm86 7.2-1.7 1 10.2 17.7a1 1 0 0 0 .9.5h.5a1 1 0 0 0 .4-1.4zm-61 18.6a1 1 0 0 0 .4 1.4h.5a1 1 0 0 0 .9-.5l10.8-18.6-1.7-1zm34.9-11.6v20.5a1 1 0 0 0 2 0v-20.5zm34.9-66.2a1.5 1.5 0 1 0 -1.5-2.6l-28.4 16.4a5.7 5.7 0 0 0 -7.9 0l-20.3-11.8a1.5 1.5 0 0 0 -1.5 2.6l20.3 11.8a5.7 5.7 0 1 0 11 0zm-33.9 20.7a2.7 2.7 0 1 1 2.7-2.7 2.7 2.7 0 0 1 -2.7 2.5z" fill="#fff"/></svg>