<svg height="17" viewBox="0 0 15 17" width="15" xmlns="http://www.w3.org/2000/svg"><path d="m13 5.451a5.5 5.5 0 0 0 -5.611-5.451 5.366 5.366 0 0 0 -5.453 5.453h-.63a1 1 0 0 0 -1.258 1.079v9.05a1.048 1.048 0 0 0 1.139 1.418h12.568a1.382 1.382 0 0 0 1.245-1.42v-8.61a1.343 1.343 0 0 0 -1.247-1.532zm-1.187-.013a4.284 4.284 0 0 0 -8.564 0zm-4.645 2.035a2.01 2.01 0 0 1 1.962 2.054 2.054 2.054 0 0 1 -1.263 1.919c-.1.041.661 3.541.661 3.541l-2.64.019a20.682 20.682 0 0 0 .647-3.535 2.05 2.05 0 0 1 -1.328-1.944 2.009 2.009 0 0 1 1.965-2.054z"/></svg>