<svg viewBox="0 0 225.8 30" xmlns="http://www.w3.org/2000/svg"><path d="m-.027 13.159 3.465-3.465 3.493 3.493-3.465 3.465zm215.099.001 3.465-3.465 3.493 3.494-3.465 3.464z" fill="#fff"/><g fill="#636466"><path d="m28.6 13.3h1.3v-5.1h2v-1.3h-3.3zm9.1.9v-7.7a2.8 2.8 0 0 0 -1.6-2.5 2.7 2.7 0 0 1 .3 1.2v7.8a2.7 2.7 0 0 1 -1 2.1 3.2 3.2 0 0 1 1 2.3v8.6a2.8 2.8 0 0 1 -2.8 2.8h-8.2v1.2h9.6a2.8 2.8 0 0 0 2.8-2.8v-8.6a3.2 3.2 0 0 0 -1-2.3 2.7 2.7 0 0 0 .9-2.1z"/><path d="m28.6 24.2h1.3v-5.1h2v-1.3h-3.3zm20.2 0h1.3v-16h2v-1.3h-3.3z"/><path d="m56.3 4a2.7 2.7 0 0 1 .3 1.2v20.8a2.8 2.8 0 0 1 -2.8 2.8h-6.8a2.7 2.7 0 0 1 -1.2-.3 2.8 2.8 0 0 0 2.5 1.5h6.8a2.8 2.8 0 0 0 2.8-2.8v-20.7a2.8 2.8 0 0 0 -1.6-2.5zm12.7 9.3h1.2v-5.1h2v-1.3h-3.2zm7.4 5.5a2.7 2.7 0 0 0 1.6-2.5v-9.8a2.8 2.8 0 0 0 -1.5-2.5 2.8 2.8 0 0 1 .3 1.2v9.9a2.7 2.7 0 0 1 -1.6 2.5l1.8 11.2h-3.4l.2 1.2h4.5zm-5.7-1h-1.7v11h-3.3v1.2h4.5v-10.9h.7zm17.8 6.4h1.3v-16h2v-1.3h-3.3z"/><path d="m96.1 4a2.7 2.7 0 0 1 .3 1.2v20.8a2.8 2.8 0 0 1 -2.8 2.8h-6.8a2.7 2.7 0 0 1 -1.2-.3 2.8 2.8 0 0 0 2.5 1.5h6.8a2.8 2.8 0 0 0 2.8-2.8v-20.7a2.8 2.8 0 0 0 -1.6-2.5zm12.6 20.2h1.3v-16h2v-1.3h-3.3z"/><path d="m116.2 4a2.7 2.7 0 0 1 .3 1.2v20.8a2.8 2.8 0 0 1 -2.8 2.8h-8.3v1.2h9.6a2.8 2.8 0 0 0 2.8-2.8v-20.7a2.8 2.8 0 0 0 -1.6-2.5zm12.9-.3v25.1h-3.2v1.2h4.5v-26.3zm20.1 0v25.1h-3.6l.4 1.2h4.5v-26.3zm-7.8 13.5v11.6h-3.3v1.2h4.5v-8.3zm19.7 1.9h3.7v-1.3h-5a2.7 2.7 0 0 1 -1.2-.3 2.8 2.8 0 0 0 2.5 1.6zm1.7 1.7-1.2.3v3.1h1.2zm6.3-16.8a2.7 2.7 0 0 1 .3 1.2v5.3l-3.3.8v1.6l4.6-1.1v-5.3a2.8 2.8 0 0 0 -1.6-2.5z"/><path d="m169.1 14.9a2.7 2.7 0 0 1 .3 1.2v9.9a2.8 2.8 0 0 1 -2.8 2.8h-6.8a2.7 2.7 0 0 1 -1.2-.3 2.8 2.8 0 0 0 2.5 1.6h6.8a2.8 2.8 0 0 0 2.8-2.8v-9.9a2.8 2.8 0 0 0 -1.6-2.5zm-7.5-8v6.4h1.2v-5.1h2v-1.3zm20.5 10.9h-.4v11h-3.2v1.2h4.5v-9.4zm9.3-14.1h-1.7l-3.8 11.9 4.2 13.2h-3.6l.3 1.1v.1h4.6l-4.2-13.2 4.2-13.1zm10.6 0v25.1h-3.2v1.2h4.5v-26.3zm19.162 15.42 3.465-3.464 1.273 1.273-3.465 3.465zm-215.269-.03 3.465-3.465 1.272 1.273-3.464 3.465z"/></g><path d="m34 10.5a2.7 2.7 0 0 1 -1 2.1 3.2 3.2 0 0 1 1 2.3v8.6a2.8 2.8 0 0 1 -2.8 2.8h-9.5v-26.3h9.6a2.8 2.8 0 0 1 2.7 2.8v7.8zm-4.6-6h-3.2v6.4h3.3v-6.4zm0 10.9h-3.2v6.4h3.3v-6.4zm22-15.4a2.8 2.8 0 0 1 2.8 2.8v20.8a2.8 2.8 0 0 1 -2.8 2.8h-6.8a2.8 2.8 0 0 1 -2.8-2.8v-20.8a2.8 2.8 0 0 1 2.8-2.8zm-1.8 4.5h-3.2v17.3h3.3v-17.3zm20.5 21.8-1.8-11h-1.8v11h-4.5v-26.3h9.6a2.8 2.8 0 0 1 2.7 2.8v9.9a2.7 2.7 0 0 1 -1.6 2.5l1.9 11.2h-4.5zm-.3-21.8h-3.3v6.4h3.3zm21.4-4.5a2.8 2.8 0 0 1 2.8 2.8v20.8a2.8 2.8 0 0 1 -2.8 2.8h-6.8a2.8 2.8 0 0 1 -2.8-2.8v-20.8a2.8 2.8 0 0 1 2.8-2.8zm-1.8 4.5h-3.3v17.3h3.3zm21.9-4.5a2.8 2.8 0 0 1 2.8 2.8v20.8a2.8 2.8 0 0 1 -2.8 2.8h-9.6v-26.4zm-1.8 4.5h-3.3v17.3h3.3zm12.7-4.5h4.5v26.3h-4.5zm24.6 0v26.3h-4.5l-3.3-11.5v11.5h-4.5v-26.3h4.5l3.3 10.8v-10.8h4.6zm17.4 10.9a2.8 2.8 0 0 1 2.8 2.8v9.9a2.8 2.8 0 0 1 -2.8 2.8h-6.8a2.8 2.8 0 0 1 -2.8-2.8v-5.5l4.5-1.1v4.7h3.3v-6.3h-5a2.8 2.8 0 0 1 -2.8-2.8v-9.8a2.8 2.8 0 0 1 2.8-2.8h6.8a2.8 2.8 0 0 1 2.8 2.8v5.3l-4.6 1.1v-4.7h-3.3v6.4h5zm19.3 2.2 4.2 13.2h-4.6v-.1l-3.4-10.8h-.4v11h-4.5v-26.4h4.5v10.9h.3l3.5-10.9h4.6zm11.6-13.1h4.5v26.3h-4.5z" fill="#fff"/></svg>